<svg id="Capa_1" data-name="Capa 1" xmlns="http://www.w3.org/2000/svg" viewBox="0 0 1218 602"><defs><style>.cls-1{fill:#192734;}.cls-2{fill:#15202b;}.cls-3{fill:#212e36;}.cls-4{fill:#1b2831;}.cls-5{fill:#192229;}.cls-6{fill:#0e233d;}.cls-7{fill:#17212b;}.cls-8{fill:#0e1621;}.cls-9{fill:#17365d;}</style></defs><title>Sin título-1</title><rect class="cls-1" x="0.5" y="0.5" width="252" height="184"/><path d="M346,47V230H95V47H346m1-1H94V231H347V46Z" transform="translate(-94 -46)"/><rect class="cls-2" x="277.5" y="0.5" width="239" height="184"/><path d="M610,47V230H372V47H610m1-1H371V231H611V46Z" transform="translate(-94 -46)"/><rect class="cls-3" x="3.5" y="228.5" width="246" height="171"/><path d="M343,275V445H98V275H343m1-1H97V446H344V274Z" transform="translate(-94 -46)"/><rect class="cls-4" x="277.5" y="231.5" width="239" height="165"/><path d="M610,278V442H372V278H610m1-1H371V443H611V277Z" transform="translate(-94 -46)"/><rect class="cls-5" x="544.5" y="225.5" width="234" height="165"/><path d="M872,272V436H639V272H872m1-1H638V437H873V271Z" transform="translate(-94 -46)"/><rect class="cls-6" x="983.5" y="0.5" width="234" height="184"/><path d="M1311,47V230H1078V47h233m1-1H1077V231h235V46Z" transform="translate(-94 -46)"/><rect class="cls-7" x="3.5" y="443.5" width="246" height="158"/><path d="M343,490V647H98V490H343m1-1H97V648H344V489Z" transform="translate(-94 -46)"/><rect class="cls-8" x="277.5" y="443.5" width="239" height="158"/><path d="M610,490V647H372V490H610m1-1H371V648H611V489Z" transform="translate(-94 -46)"/><rect class="cls-9" x="983.5" y="225.5" width="234" height="158"/><path d="M1311,272V429H1078V272h233m1-1H1077V430h235V271Z" transform="translate(-94 -46)"/></svg>