<svg xmlns="http://www.w3.org/2000/svg" viewBox="0 0 362.73 411.38"><defs><style>.cls-1{fill:#264de4;}.cls-2{fill:#2965f1;}.cls-3{fill:#ebebeb;}.cls-4{fill:#fff;}</style></defs><title>Recurso 1</title><g id="Capa_2" data-name="Capa 2"><g id="svg2"><g id="layer1"><g id="g3013"><polygon id="polygon2989" class="cls-1" points="181.15 411.38 33.01 370.26 0 0 362.73 0 329.69 370.2 181.15 411.38"/><polygon id="polygon2991" class="cls-2" points="301.4 346.63 329.64 30.27 181.37 30.27 181.37 379.9 301.4 346.63"/><polygon id="polygon2993" class="cls-3" points="75.68 167.6 79.75 213.01 181.37 213.01 181.37 167.6 75.68 167.6"/><polygon id="polygon2995" class="cls-3" points="67.5 75.69 71.63 121.1 181.37 121.1 181.37 75.69 181.21 75.69 67.5 75.69"/><polygon id="polygon2997" class="cls-3" points="181.37 285.53 181.17 285.59 130.59 271.93 127.36 235.71 102.79 235.71 81.78 235.71 88.14 307.01 181.16 332.84 181.37 332.78 181.37 285.53"/><polygon id="polygon3005" class="cls-4" points="286.77 167.6 294.96 75.69 181.21 75.69 181.21 121.1 245.2 121.1 241.07 167.6 181.21 167.6 181.21 213.01 237.13 213.01 231.86 271.9 181.21 285.57 181.21 332.81 274.3 307.01 274.99 299.34 285.66 179.79 286.77 167.6"/></g></g></g></g></svg>