<svg xmlns="http://www.w3.org/2000/svg" viewBox="0 0 362.73 411.38"><defs><style>.cls-1{fill:#e44d26;}.cls-2{fill:#f16529;}.cls-3{fill:#ebebeb;}.cls-4{fill:#fff;}</style></defs><title>Recurso 2</title><g id="Capa_2" data-name="Capa 2"><g id="svg2"><g id="layer1"><g id="g3054"><polygon id="polygon3028" class="cls-1" points="362.73 0 329.69 370.2 181.15 411.38 33.01 370.26 0 0 362.73 0"/><polygon id="polygon3030" class="cls-2" points="181.37 379.9 301.4 346.63 329.64 30.27 181.37 30.27 181.37 379.9"/><polygon id="polygon3032" class="cls-3" points="117.13 121.1 181.37 121.1 181.37 75.69 181.21 75.69 67.5 75.69 68.59 87.87 79.75 213.01 181.37 213.01 181.37 167.6 121.28 167.6 117.13 121.1"/><polygon id="polygon3034" class="cls-3" points="127.36 235.71 102.79 235.71 81.78 235.71 88.14 307.01 181.16 332.84 181.37 332.78 181.37 285.53 181.17 285.59 130.59 271.93 127.36 235.71"/><polygon id="polygon3044" class="cls-4" points="181.21 213.01 237.13 213.01 231.86 271.9 181.21 285.57 181.21 332.81 274.3 307.01 274.99 299.34 285.66 179.79 286.77 167.6 274.53 167.6 181.21 167.6 181.21 213.01"/><polygon id="polygon3046" class="cls-4" points="181.21 120.98 181.21 121.1 290.75 121.1 290.75 121.1 290.9 121.1 291.81 110.89 293.88 87.87 294.96 75.69 181.21 75.69 181.21 103.89 181.21 120.98"/></g></g></g></g></svg>