<svg xmlns="http://www.w3.org/2000/svg" viewBox="0 0 94.14 90.69"><defs><style>.cls-1{fill:#0868ac;}</style></defs><title>Recurso 2</title><g id="Capa_2" data-name="Capa 2"><g id="Capa_1-2" data-name="Capa 1"><path class="cls-1" d="M6,21.3c-8.34,12-7.3,27.57-.93,40.3.15.31.31.61.47.91s.19.39.3.57L6,63.4l.33.59.61,1,.35.57c.23.37.47.74.71,1.1l.3.46c.33.5.67,1,1,1.47l0,0,.17.23c.3.42.62.83.93,1.24l.35.45.86,1.06.33.39c.39.46.79.92,1.2,1.37l0,0,0,.05c.4.43.81.86,1.22,1.28l.39.39,1,1,.4.38q.66.62,1.33,1.21l0,0,.23.2L19,79l.5.4,1,.79.54.41,1.13.81.41.29.11.08c.36.25.73.49,1.1.73l.48.32c.57.36,1.14.71,1.72,1.05l.48.27,1.29.73.72.37.93.48.21.1L30,86l1.47.68.31.14q.85.37,1.71.71l.42.16c.53.21,1.07.41,1.61.6l.2.07c.59.21,1.2.4,1.8.59l.43.13a17.5,17.5,0,0,0,1.86.52c40.31,7.35,52-24.22,52-24.22C82,78.17,64.58,81.55,48,77.79c-.63-.14-1.23-.34-1.85-.52l-.46-.14q-.9-.27-1.78-.58l-.24-.09-1.57-.58-.44-.17q-.85-.34-1.69-.7l-.34-.15-1.43-.66-.41-.2-1.1-.56L36,73c-.45-.24-.89-.49-1.32-.74l-.45-.25c-.58-.34-1.15-.7-1.72-1.06L32,70.69l-1.23-.82-.4-.28-1.16-.84-.51-.39-1-.82-.47-.37c-.44-.36-.87-.73-1.3-1.1L25.79,66c-.46-.41-.92-.83-1.37-1.25L24,64.35c-.33-.32-.66-.64-1-1L22.66,63q-.62-.63-1.21-1.28l-.06-.06c-.42-.46-.83-.92-1.22-1.39l-.32-.38c-.3-.36-.59-.72-.88-1.09l-.32-.4c-.35-.45-.69-.9-1-1.36C8.44,44.51,5.15,27.24,12.48,13"/><path class="cls-1" d="M31.85,11.21c-6,8.67-5.7,20.29-1,29.46a38.38,38.38,0,0,0,2.67,4.45A21.17,21.17,0,0,0,36.62,49c.43.48.89.94,1.35,1.4l.36.35c.45.44.91.87,1.38,1.28l.06,0h0c.52.46,1.06.9,1.61,1.34l.37.29c.55.42,1.11.84,1.69,1.23l0,0,.77.51.37.24q.62.4,1.25.77l.18.1,1.11.62.39.21.77.4.12.05c.53.26,1.07.51,1.61.75l.36.15,1.32.54.57.21,1.21.42.55.18a13.26,13.26,0,0,0,1.76.51C87,65.79,94.14,41.82,94.14,41.82c-6.48,9.33-19,13.78-32.4,10.31-.59-.16-1.18-.33-1.76-.51l-.53-.17L58.21,51l-.56-.21-1.33-.53L56,50.13q-.82-.36-1.62-.75L53.53,49l-.47-.24-1-.58L51.79,48q-.63-.37-1.25-.76L50.16,47l-.81-.53c-.57-.4-1.13-.81-1.68-1.23l-.38-.3A37.53,37.53,0,0,1,34.58,26.81C32.27,19.37,32.77,11,36.78,4.25"/><path class="cls-1" d="M53.61,3.67a18.14,18.14,0,0,0-1.44,17.5A24.64,24.64,0,0,0,66.32,34.39l.77.27.34.11a9.73,9.73,0,0,0,1.11.32c17.18,3.32,21.85-8.82,23.09-10.6-4.08,5.88-10.94,7.29-19.36,5.25-.67-.16-1.4-.4-2-.63a24.9,24.9,0,0,1-2.42-1,25,25,0,0,1-4.24-2.59C56,19.79,51.36,8.88,56.27,0"/></g></g></svg>