<svg xmlns="http://www.w3.org/2000/svg" viewBox="0 0 122.53 122.52"><defs><style>.cls-1{fill:#007399;}</style></defs><title>Recurso 3</title><g id="Capa_2" data-name="Capa 2"><g id="Capa_1-2" data-name="Capa 1"><g id="Layer_2" data-name="Layer 2"><path class="cls-1" d="M8.71,61.26a52.56,52.56,0,0,0,29.62,47.3L13.26,39.87A52.35,52.35,0,0,0,8.71,61.26Z"/><path class="cls-1" d="M96.74,58.61c0-6.49-2.33-11-4.33-14.49-2.66-4.33-5.16-8-5.16-12.32,0-4.83,3.66-9.33,8.82-9.33.23,0,.45,0,.68,0a52.54,52.54,0,0,0-79.4,9.89c1.23,0,2.4.06,3.38.06,5.5,0,14-.67,14-.67a2.17,2.17,0,0,1,.34,4.33s-2.85.33-6,.5L48.2,93.55,59.7,59.05,51.51,36.62c-2.83-.17-5.51-.5-5.51-.5-2.83-.17-2.5-4.5.33-4.33,0,0,8.68.67,13.84.67,5.5,0,14-.67,14-.67a2.17,2.17,0,0,1,.34,4.33s-2.85.33-6,.5l19,56.49L92.74,75.6C95,68.33,96.74,63.11,96.74,58.61Z"/><path class="cls-1" d="M62.18,65.86,46.42,111.68a52.58,52.58,0,0,0,32.3-.84,4.62,4.62,0,0,1-.37-.72Z"/><path class="cls-1" d="M107.38,36a40.32,40.32,0,0,1,.35,5.4,49.57,49.57,0,0,1-4,18.82L87.68,106.69A52.56,52.56,0,0,0,107.38,36Z"/><path class="cls-1" d="M61.26,0a61.26,61.26,0,1,0,61.26,61.26A61.33,61.33,0,0,0,61.26,0Zm0,119.71a58.45,58.45,0,1,1,58.45-58.46A58.52,58.52,0,0,1,61.26,119.71Z"/></g></g></g></svg>