<svg xmlns="http://www.w3.org/2000/svg" viewBox="0 0 759.98 310.5"><defs><style>.cls-1{fill:#6c1cd3;}</style></defs><title>Recurso 1</title><g id="Capa_2" data-name="Capa 2"><g id="Capa_1-2" data-name="Capa 1"><path id="path6" class="cls-1" d="M70,43,4.27,42.39V86H113.2L0,231.1V268H70v42.5h42V268h71.4c.6-1.7.81-6.28-3-10.48A102.2,102.2,0,0,1,164.5,234c-2.1-4.1-3.69-9-4.29-9.41-14.06-.64-94.95-.48-94.91-1l113.3-146V43H112V0H70Z"/><path id="path8" class="cls-1" d="M373.3,22.7c-1,.4-1.3,22.5-1.3,106.2,0,113.1-.1,111.2,4.9,120.9,4.5,8.7,15.5,16.5,27.8,19.7,6.8,1.8,26.8,2,34.5.4,9.9-2.1,11.8-5.1,7.9-12.8a85.15,85.15,0,0,1-6.6-21.1c-1.1-6.9-2.5-8-10.9-7.8-4,.1-7.8-.2-8.5-.6C417,225,417,224.3,417,123c0-65.1-.3-97.8-1-99.1-1-1.8-2.3-1.9-21.3-1.8C383.6,22.1,373.9,22.4,373.3,22.7Z"/><path id="path10" class="cls-1" d="M465,23c-1.3.8-1.5,13.6-1.5,105.2,0,98.7.1,104.7,1.9,111.6,3.4,13.6,11.1,21.9,25.7,28,5.6,2.3,8.1,2.7,19.4,3,15.1.4,22.8-.7,30.5-4.6,7.6-3.7,7.8-6.3,1.3-15.8-2.6-3.8-6.6-10.3-8.8-14.4l-4-7.5-7.3-.1c-9.1-.2-10-.6-11.7-4.9-1.3-2.9-1.5-17.8-1.5-100.5,0-65.1-.3-97.8-1-99.1-1-1.8-2.3-1.9-21.3-1.9C475.6,22,465.8,22.5,465,23Z"/><path id="path12" class="cls-1" d="M731,44.5c-8.1,3.7-12.3,10.1-12.4,19-.1,7.6,3,13.4,9.3,17.5,7.8,5.3,20.3,3.8,26.8-3.2,8.3-8.9,6.6-24.3-3.6-31.2C745.8,43,736.5,42.1,731,44.5Zm16,3.7c11.3,5.7,13,20.3,3.4,28.8-4.1,3.6-7,4.4-13.3,3.8-17.4-1.7-20.8-26.1-4.6-33.4C736.9,45.4,742,45.7,747,48.2Z"/><path id="path14" class="cls-1" d="M731.7,52.7c-.7,1.2-.8,19.8-.1,21.7a2.34,2.34,0,0,0,2,1.6c1,0,1.4-1.4,1.4-5,0-4.5.2-5,2.3-5,1.6,0,3,1.4,5.2,5,1.8,3,3.6,5,4.7,5,2.4,0,2.3-.4-1.4-5.8-2.2-3.2-2.8-4.7-1.9-5,2.6-.9,5.1-4.2,5.1-6.7,0-4.5-3.2-6.5-10.4-6.5C735,52,731.9,52.3,731.7,52.7Zm12.1,3.2c.8.4,1.2,1.9,1,3.2-.3,2.1-.9,2.4-5,2.7l-4.8.3V58.6c0-3.5.1-3.6,3.8-3.6C740.8,55,743.1,55.4,743.8,55.9Z"/><path id="path16" class="cls-1" d="M247.5,85.5c-.5.2-4.4,1.1-8.5,2-25.7,5.9-48.4,25.6-58,50.6-5.3,13.8-7.2,24.5-7.3,40.4-.1,22.3,4.4,38.7,14.7,54.3C200,250.3,217,262.2,239,268.2c7.5,2,10.8,2.3,28,2.3,17,0,20.5-.3,27.6-2.2,17.6-4.9,32.6-13,44.7-24.5,7.7-7.2,7.6-9.2-.2-15.2a125.2,125.2,0,0,1-12.8-12.1c-4.8-5.1-7.7-7.5-9.2-7.5s-4.6,2-7.7,5c-10.7,9.7-24.2,14.3-41.9,14.2-16.2-.1-28-4.3-35.5-12.9-3.8-4.3-8.6-14.1-9.6-19.6l-.6-3.7h62.3c34.3,0,63-.4,63.7-.9,3.3-2.1,4.1-16.6,1.7-32.4-5.7-37.8-28.3-63.2-63.8-71.7-6.3-1.5-11.5-2-22.7-1.9C255,85.1,248.1,85.3,247.5,85.5Zm26.7,38.6c7.3,1.5,16.3,6.5,20.5,11.3,3.9,4.4,7.9,12.3,8.9,17.4l.7,3.2H222.8l.7-3.2c3-13.5,14.6-24.8,29-28.4A52.82,52.82,0,0,1,274.2,124.1Z"/><path id="path18" class="cls-1" d="M611,86.4c-35.5,7.9-59.5,32.9-67,69.8-4.5,21.8-2,47.2,6.5,65.4,11.6,25.2,32.7,41.5,61.5,47.4,9.1,1.9,12.7,2.1,27,1.7,12.1-.4,18.6-1.1,24.2-2.6,17.1-4.5,32.1-12.7,43.6-23.7,8.8-8.5,8.8-8.9-.7-16.8A123.11,123.11,0,0,1,693,215c-6.5-7.5-8.2-7.6-15.5-1-10.9,9.9-23.9,14.3-42,14.2-25.4-.1-40.2-11-45-33l-.7-2.59H716.5c4.3-3.1,2.7-35.91-2.5-51.11a114.35,114.35,0,0,0-5.9-13.2c-11.7-22.4-30.4-36.3-56.4-41.8C643.4,84.7,618.9,84.7,611,86.4Zm31.2,37.7a43,43,0,0,1,18.8,9.5c4.2,3.9,11,16.2,11,20V156H590.8l.7-2.8C596.7,131.8,618.7,119.1,642.2,124.1Z"/></g></g></svg>